# xmcd
#
# Track frame offsets:
# 150
# 19501
# 38668
# 54932
# 73068
# 89868
# 109472
# 128840
# 147926
# 164190
# 182370
# 199192
#
# Disc length: 2917 seconds
#
#
# Revision: 0
# Processed by: cddbd v1.5.2PL0 Copyright (c) Steve Scherf et al.
# Submitted via: FreeRIP 2.951 
#
DISCID=ae0b630c
DTITLE=Josh Turner - Chartbuster Karaoke
DYEAR=2005
DGENRE=Country
TTITLE0=Josh Turner - Long BackTrain (Bb)
TTITLE1=Josh Turner - She'll Go On You (F)
TTITLE2=Josh Turner - What It Ain't (G)
TTITLE3=Josh Turner - Would You Go With Me (Gb)
TTITLE4=Josh Turner - Your Man (Gb)
TTITLE5=Josh Turner - No Rush (C/Bb)
TTITLE6=Josh Turner - Long BackTrain (Bb)-Vocal
TTITLE7=Josh Turner - She'll Go On You (F)-Vocal
TTITLE8=Josh Turner - Josh Turner - What It Ain't (G)-Vocal
TTITLE9=Josh Turner - Would You Go With Me (Gb)-Vocal
TTITLE10=Josh Turner - Your Man (Gb)-Vocal
TTITLE11=Josh Turner - No Rush (C/Bb)-Vocal
EXTD=
EXTT0=
EXTT1=
EXTT2=
EXTT3=
EXTT4=
EXTT5=
EXTT6=
EXTT7=
EXTT8=
EXTT9=
EXTT10=
EXTT11=
PLAYORDER=
